<?xml version="1.0" ?>
<!-- Uploaded to: SVG Repo, www.svgrepo.com, Generator: SVG Repo Mixer Tools -->
<svg fill="#000000" width="800px" height="800px" viewBox="0 0 100 100" version="1.1" xml:space="preserve" xmlns="http://www.w3.org/2000/svg" xmlns:xlink="http://www.w3.org/1999/xlink">
<g id="network"/>
<g id="connection">
<g>
<path d="M93,37H73c-1.7,0-3,1.3-3,3v9h-6.1c-0.5-6.9-6-12.5-12.9-12.9V30h9c1.7,0,3-1.3,3-3V7c0-1.7-1.3-3-3-3H40    c-1.7,0-3,1.3-3,3v20c0,1.7,1.3,3,3,3h9v6.1c-6.9,0.5-12.5,6-12.9,12.9H30v-9c0-1.7-1.3-3-3-3H7c-1.7,0-3,1.3-3,3v20    c0,1.7,1.3,3,3,3h20c1.7,0,3-1.3,3-3v-9h6.1c0.5,6.9,6,12.5,12.9,12.9V70h-9c-1.7,0-3,1.3-3,3v20c0,1.7,1.3,3,3,3h20    c1.7,0,3-1.3,3-3V73c0-1.7-1.3-3-3-3h-9v-6.1c6.9-0.5,12.5-6,12.9-12.9H70v9c0,1.7,1.3,3,3,3h20c1.7,0,3-1.3,3-3V40    C96,38.3,94.7,37,93,37z M47,16c0-1.7,1.3-3,3-3s3,1.3,3,3s-1.3,3-3,3S47,17.7,47,16z M42.1,28c0.5-3.9,3.9-7,7.9-7s7.4,3.1,7.9,7    H42.1z M39,27V7c0-0.6,0.4-1,1-1h20c0.6,0,1,0.4,1,1v20c0,0.6-0.4,1-1,1h-0.1c-0.4-3.9-3-7.1-6.5-8.4c1-0.9,1.6-2.2,1.6-3.6    c0-2.8-2.2-5-5-5s-5,2.2-5,5c0,1.4,0.6,2.7,1.6,3.6c-3.5,1.3-6.1,4.5-6.5,8.4H40C39.4,28,39,27.6,39,27z M14,49c0-1.7,1.3-3,3-3    s3,1.3,3,3s-1.3,3-3,3S14,50.7,14,49z M9.1,61c0.5-3.9,3.9-7,7.9-7s7.4,3.1,7.9,7H9.1z M28,60c0,0.6-0.4,1-1,1h-0.1    c-0.4-3.9-3-7.1-6.5-8.4c1-0.9,1.6-2.2,1.6-3.6c0-2.8-2.2-5-5-5s-5,2.2-5,5c0,1.4,0.6,2.7,1.6,3.6C10,53.9,7.4,57.1,7.1,61H7    c-0.6,0-1-0.4-1-1V40c0-0.6,0.4-1,1-1h20c0.6,0,1,0.4,1,1V60z M47,82c0-1.7,1.3-3,3-3s3,1.3,3,3s-1.3,3-3,3S47,83.7,47,82z     M42.1,94c0.5-3.9,3.9-7,7.9-7s7.4,3.1,7.9,7H42.1z M61,73v20c0,0.6-0.4,1-1,1h-0.1c-0.4-3.9-3-7.1-6.5-8.4c1-0.9,1.6-2.2,1.6-3.6    c0-2.8-2.2-5-5-5s-5,2.2-5,5c0,1.4,0.6,2.7,1.6,3.6c-3.5,1.3-6.1,4.5-6.5,8.4H40c-0.6,0-1-0.4-1-1V73c0-0.6,0.4-1,1-1h20    C60.6,72,61,72.4,61,73z M55.8,53.5c0.1-1.1,0.2-2.3,0.2-3.5s-0.1-2.3-0.2-3.5c3.9,0.8,6.2,2.3,6.2,3.5S59.7,52.7,55.8,53.5z     M50,62c-1.2,0-2.7-2.3-3.5-6.2c1.1,0.1,2.3,0.2,3.5,0.2s2.3-0.1,3.5-0.2C52.7,59.7,51.2,62,50,62z M50,54c-1.4,0-2.6-0.1-3.8-0.2    C46.1,52.6,46,51.4,46,50s0.1-2.6,0.2-3.8c1.2-0.1,2.4-0.2,3.8-0.2s2.6,0.1,3.8,0.2c0.1,1.2,0.2,2.4,0.2,3.8s-0.1,2.6-0.2,3.8    C52.6,53.9,51.4,54,50,54z M38,50c0-1.2,2.3-2.7,6.2-3.5C44.1,47.7,44,48.8,44,50s0.1,2.3,0.2,3.5C40.3,52.7,38,51.2,38,50z     M50,38c1.2,0,2.7,2.3,3.5,6.2C52.3,44.1,51.2,44,50,44s-2.3,0.1-3.5,0.2C47.3,40.3,48.8,38,50,38z M61.5,46.5    c-1.5-0.9-3.6-1.6-5.9-2c-0.4-2.3-1.1-4.4-2-5.9C57.3,39.7,60.3,42.7,61.5,46.5z M46.5,38.5c-0.9,1.5-1.6,3.6-2,5.9    c-2.3,0.4-4.4,1.1-5.9,2C39.7,42.7,42.7,39.7,46.5,38.5z M38.5,53.5c1.5,0.9,3.6,1.6,5.9,2c0.4,2.3,1.1,4.4,2,5.9    C42.7,60.3,39.7,57.3,38.5,53.5z M53.5,61.5c0.9-1.5,1.6-3.6,2-5.9c2.3-0.4,4.4-1.1,5.9-2C60.3,57.3,57.3,60.3,53.5,61.5z M80,49    c0-1.7,1.3-3,3-3s3,1.3,3,3s-1.3,3-3,3S80,50.7,80,49z M75.1,61c0.5-3.9,3.9-7,7.9-7s7.4,3.1,7.9,7H75.1z M94,60c0,0.6-0.4,1-1,1    h-0.1c-0.4-3.9-3-7.1-6.5-8.4c1-0.9,1.6-2.2,1.6-3.6c0-2.8-2.2-5-5-5s-5,2.2-5,5c0,1.4,0.6,2.7,1.6,3.6c-3.5,1.3-6.1,4.5-6.5,8.4    H73c-0.6,0-1-0.4-1-1V40c0-0.6,0.4-1,1-1h20c0.6,0,1,0.4,1,1V60z"/>
<path d="M16.4,33.8c0,0,0.1,0,0.1,0.1c0,0,0.1,0,0.1,0.1c0.1,0,0.2,0.1,0.4,0.1s0.2,0,0.4-0.1c0,0,0.1,0,0.1-0.1    c0,0,0.1,0,0.1-0.1l4-3c0.4-0.3,0.5-1,0.2-1.4c-0.3-0.4-1-0.5-1.4-0.2L18,31v-8c0-2.8,2.2-5,5-5h8l-1.8,2.4    c-0.3,0.4-0.2,1.1,0.2,1.4c0.2,0.1,0.4,0.2,0.6,0.2c0.3,0,0.6-0.1,0.8-0.4l3-4c0,0,0-0.1,0.1-0.1c0,0,0-0.1,0.1-0.1    c0.1-0.2,0.1-0.5,0-0.7c0,0,0-0.1-0.1-0.1c0,0,0-0.1-0.1-0.1l-3-4c-0.3-0.4-1-0.5-1.4-0.2c-0.4,0.3-0.5,1-0.2,1.4L31,16h-8    c-3.9,0-7,3.1-7,7v8l-2.4-1.8c-0.4-0.3-1.1-0.2-1.4,0.2c-0.3,0.4-0.2,1.1,0.2,1.4L16.4,33.8z"/>
<path d="M33.9,82.6c0,0,0-0.1-0.1-0.1c0,0,0-0.1-0.1-0.1l-3-4c-0.3-0.4-1-0.5-1.4-0.2c-0.4,0.3-0.5,1-0.2,1.4L31,82h-8    c-2.8,0-5-2.2-5-5v-8l2.4,1.8c0.2,0.1,0.4,0.2,0.6,0.2c0.3,0,0.6-0.1,0.8-0.4c0.3-0.4,0.2-1.1-0.2-1.4l-4-3c0,0-0.1,0-0.1-0.1    c0,0-0.1,0-0.1-0.1C17.2,66,17.1,66,17,66c0,0,0,0,0,0s0,0,0,0c-0.1,0-0.2,0-0.3,0.1c0,0-0.1,0-0.1,0.1c0,0-0.1,0-0.1,0.1l-4,3    c-0.4,0.3-0.5,1-0.2,1.4s1,0.5,1.4,0.2L16,69v8c0,3.9,3.1,7,7,7h8l-1.8,2.4c-0.3,0.4-0.2,1.1,0.2,1.4c0.2,0.1,0.4,0.2,0.6,0.2    c0.3,0,0.6-0.1,0.8-0.4l3-4c0,0,0-0.1,0.1-0.1c0,0,0-0.1,0.1-0.1C34,83.1,34,82.9,33.9,82.6z"/>
<path d="M66.1,17.4c0,0,0,0.1,0.1,0.1c0,0,0,0.1,0.1,0.1l3,4c0.2,0.3,0.5,0.4,0.8,0.4c0.2,0,0.4-0.1,0.6-0.2    c0.4-0.3,0.5-1,0.2-1.4L69,18h8c2.8,0,5,2.2,5,5v8l-2.4-1.8c-0.4-0.3-1.1-0.2-1.4,0.2c-0.3,0.4-0.2,1.1,0.2,1.4l4,3    c0,0,0.1,0,0.1,0.1c0,0,0.1,0,0.1,0.1c0.1,0,0.2,0.1,0.4,0.1s0.2,0,0.4-0.1c0,0,0.1,0,0.1-0.1c0,0,0.1,0,0.1-0.1l4-3    c0.4-0.3,0.5-1,0.2-1.4c-0.3-0.4-1-0.5-1.4-0.2L84,31v-8c0-3.9-3.1-7-7-7h-8l1.8-2.4c0.3-0.4,0.2-1.1-0.2-1.4    c-0.4-0.3-1.1-0.2-1.4,0.2l-3,4c0,0,0,0.1-0.1,0.1c0,0,0,0.1-0.1,0.1C66,16.9,66,17.1,66.1,17.4z"/>
<path d="M83.6,66.2c0,0-0.1,0-0.1-0.1c0,0-0.1,0-0.1-0.1C83.2,66,83.1,66,83,66c0,0,0,0,0,0s0,0,0,0c-0.1,0-0.2,0-0.3,0.1    c0,0-0.1,0-0.1,0.1c0,0-0.1,0-0.1,0.1l-4,3c-0.4,0.3-0.5,1-0.2,1.4s1,0.5,1.4,0.2L82,69v8c0,2.8-2.2,5-5,5h-8l1.8-2.4    c0.3-0.4,0.2-1.1-0.2-1.4c-0.4-0.3-1.1-0.2-1.4,0.2l-3,4c0,0,0,0.1-0.1,0.1c0,0,0,0.1-0.1,0.1c-0.1,0.2-0.1,0.5,0,0.7    c0,0,0,0.1,0.1,0.1c0,0,0,0.1,0.1,0.1l3,4c0.2,0.3,0.5,0.4,0.8,0.4c0.2,0,0.4-0.1,0.6-0.2c0.4-0.3,0.5-1,0.2-1.4L69,84h8    c3.9,0,7-3.1,7-7v-8l2.4,1.8c0.2,0.1,0.4,0.2,0.6,0.2c0.3,0,0.6-0.1,0.8-0.4c0.3-0.4,0.2-1.1-0.2-1.4L83.6,66.2z"/>
</g>
</g>
<g id="page"/>
<g id="support"/>
<g id="configuration"/>
<g id="cloud_storage"/>
<g id="password"/>
<g id="search_engine"/>
<g id="history"/>
<g id="SEO"/>
<g id="optimization"/>
<g id="backlink"/>
<g id="performance"/>
<g id="analytics"/>
<g id="security"/>
<g id="dark_web"/>
<g id="video_player"/>
<g id="upload_download"/>
<g id="incognito_tab"/>
<g id="bookmark"/>
</svg>